<svg xmlns="http://www.w3.org/2000/svg" xmlns:xlink="http://www.w3.org/1999/xlink" width="500" zoomAndPan="magnify" viewBox="0 0 375 374.999991" height="500" preserveAspectRatio="xMidYMid meet" version="1.0"><defs><g/><clipPath id="f607959ed9"><path d="M 375 187.5 C 375 190.570312 374.925781 193.636719 374.773438 196.699219 C 374.625 199.765625 374.398438 202.824219 374.097656 205.878906 C 373.796875 208.933594 373.421875 211.976562 372.96875 215.011719 C 372.519531 218.046875 371.996094 221.070312 371.398438 224.078125 C 370.796875 227.089844 370.125 230.082031 369.378906 233.058594 C 368.636719 236.035156 367.816406 238.992188 366.925781 241.929688 C 366.035156 244.863281 365.074219 247.777344 364.039062 250.667969 C 363.003906 253.554688 361.902344 256.417969 360.726562 259.253906 C 359.554688 262.089844 358.308594 264.890625 356.996094 267.667969 C 355.6875 270.441406 354.308594 273.179688 352.859375 275.886719 C 351.414062 278.59375 349.902344 281.261719 348.324219 283.894531 C 346.746094 286.527344 345.105469 289.117188 343.402344 291.667969 C 341.695312 294.222656 339.929688 296.730469 338.101562 299.195312 C 336.273438 301.660156 334.386719 304.078125 332.4375 306.449219 C 330.492188 308.820312 328.488281 311.144531 326.429688 313.417969 C 324.367188 315.691406 322.253906 317.914062 320.082031 320.082031 C 317.914062 322.253906 315.691406 324.367188 313.417969 326.429688 C 311.144531 328.488281 308.820312 330.492188 306.449219 332.4375 C 304.078125 334.386719 301.660156 336.273438 299.195312 338.101562 C 296.730469 339.929688 294.222656 341.695312 291.667969 343.402344 C 289.117188 345.105469 286.527344 346.746094 283.894531 348.324219 C 281.261719 349.902344 278.59375 351.414062 275.886719 352.859375 C 273.179688 354.308594 270.441406 355.6875 267.667969 356.996094 C 264.890625 358.308594 262.089844 359.554688 259.253906 360.726562 C 256.417969 361.902344 253.554688 363.003906 250.667969 364.039062 C 247.777344 365.074219 244.863281 366.035156 241.929688 366.925781 C 238.992188 367.816406 236.035156 368.636719 233.058594 369.378906 C 230.082031 370.125 227.089844 370.796875 224.078125 371.398438 C 221.070312 371.996094 218.046875 372.519531 215.011719 372.96875 C 211.976562 373.421875 208.933594 373.796875 205.878906 374.097656 C 202.824219 374.398438 199.765625 374.625 196.699219 374.773438 C 193.636719 374.925781 190.570312 375 187.5 375 C 184.429688 375 181.363281 374.925781 178.300781 374.773438 C 175.234375 374.625 172.175781 374.398438 169.121094 374.097656 C 166.066406 373.796875 163.023438 373.421875 159.988281 372.96875 C 156.953125 372.519531 153.929688 371.996094 150.921875 371.398438 C 147.910156 370.796875 144.917969 370.125 141.941406 369.378906 C 138.964844 368.636719 136.007812 367.816406 133.070312 366.925781 C 130.136719 366.035156 127.222656 365.074219 124.332031 364.039062 C 121.445312 363.003906 118.582031 361.902344 115.746094 360.726562 C 112.910156 359.554688 110.105469 358.308594 107.332031 356.996094 C 104.558594 355.6875 101.820312 354.308594 99.113281 352.859375 C 96.40625 351.414062 93.738281 349.902344 91.105469 348.324219 C 88.472656 346.746094 85.882812 345.105469 83.332031 343.402344 C 80.777344 341.695312 78.269531 339.929688 75.804688 338.101562 C 73.339844 336.273438 70.921875 334.386719 68.550781 332.4375 C 66.179688 330.492188 63.855469 328.488281 61.582031 326.429688 C 59.308594 324.367188 57.085938 322.253906 54.917969 320.082031 C 52.746094 317.914062 50.632812 315.691406 48.570312 313.417969 C 46.511719 311.144531 44.507812 308.820312 42.558594 306.449219 C 40.613281 304.078125 38.726562 301.660156 36.898438 299.195312 C 35.070312 296.730469 33.304688 294.222656 31.597656 291.667969 C 29.894531 289.117188 28.253906 286.527344 26.675781 283.894531 C 25.097656 281.261719 23.585938 278.59375 22.140625 275.886719 C 20.691406 273.179688 19.3125 270.441406 18.003906 267.667969 C 16.691406 264.890625 15.445312 262.089844 14.273438 259.253906 C 13.097656 256.417969 11.996094 253.554688 10.960938 250.667969 C 9.925781 247.777344 8.964844 244.863281 8.074219 241.929688 C 7.183594 238.992188 6.363281 236.035156 5.621094 233.058594 C 4.875 230.082031 4.203125 227.089844 3.601562 224.078125 C 3.003906 221.070312 2.480469 218.046875 2.03125 215.011719 C 1.578125 211.976562 1.203125 208.933594 0.902344 205.878906 C 0.601562 202.824219 0.375 199.765625 0.226562 196.699219 C 0.0742188 193.636719 0 190.570312 0 187.5 C 0 184.429688 0.0742188 181.363281 0.226562 178.300781 C 0.375 175.234375 0.601562 172.175781 0.902344 169.121094 C 1.203125 166.066406 1.578125 163.023438 2.03125 159.988281 C 2.480469 156.953125 3.003906 153.929688 3.601562 150.921875 C 4.203125 147.910156 4.875 144.917969 5.621094 141.941406 C 6.363281 138.964844 7.183594 136.007812 8.074219 133.070312 C 8.964844 130.136719 9.925781 127.222656 10.960938 124.332031 C 11.996094 121.445312 13.097656 118.582031 14.273438 115.746094 C 15.445312 112.910156 16.691406 110.105469 18.003906 107.332031 C 19.3125 104.558594 20.691406 101.820312 22.140625 99.113281 C 23.585938 96.40625 25.097656 93.738281 26.675781 91.105469 C 28.253906 88.472656 29.894531 85.882812 31.597656 83.332031 C 33.304688 80.777344 35.070312 78.269531 36.898438 75.804688 C 38.726562 73.339844 40.613281 70.921875 42.558594 68.550781 C 44.507812 66.179688 46.511719 63.855469 48.570312 61.582031 C 50.632812 59.308594 52.746094 57.085938 54.917969 54.917969 C 57.085938 52.746094 59.308594 50.632812 61.582031 48.570312 C 63.855469 46.511719 66.179688 44.507812 68.550781 42.558594 C 70.921875 40.613281 73.339844 38.726562 75.804688 36.898438 C 78.269531 35.070312 80.777344 33.304688 83.332031 31.597656 C 85.882812 29.894531 88.472656 28.253906 91.105469 26.675781 C 93.738281 25.097656 96.40625 23.585938 99.113281 22.140625 C 101.820312 20.691406 104.558594 19.3125 107.332031 18.003906 C 110.105469 16.691406 112.910156 15.445312 115.746094 14.273438 C 118.582031 13.097656 121.445312 11.996094 124.332031 10.960938 C 127.222656 9.925781 130.136719 8.964844 133.070312 8.074219 C 136.007812 7.183594 138.964844 6.363281 141.941406 5.617188 C 144.917969 4.875 147.910156 4.203125 150.921875 3.601562 C 153.929688 3.003906 156.953125 2.480469 159.988281 2.03125 C 163.023438 1.578125 166.066406 1.203125 169.121094 0.902344 C 172.175781 0.601562 175.234375 0.375 178.300781 0.226562 C 181.363281 0.0742188 184.429688 0 187.5 0 C 190.570312 0 193.636719 0.0742188 196.699219 0.226562 C 199.765625 0.375 202.824219 0.601562 205.878906 0.902344 C 208.933594 1.203125 211.976562 1.578125 215.011719 2.03125 C 218.046875 2.480469 221.070312 3.003906 224.078125 3.601562 C 227.089844 4.203125 230.082031 4.875 233.058594 5.617188 C 236.035156 6.363281 238.992188 7.183594 241.929688 8.074219 C 244.863281 8.964844 247.777344 9.925781 250.667969 10.960938 C 253.554688 11.996094 256.417969 13.097656 259.253906 14.273438 C 262.089844 15.445312 264.890625 16.691406 267.667969 18.003906 C 270.441406 19.3125 273.179688 20.691406 275.886719 22.140625 C 278.59375 23.585938 281.261719 25.097656 283.894531 26.675781 C 286.527344 28.253906 289.117188 29.894531 291.667969 31.597656 C 294.222656 33.304688 296.730469 35.070312 299.195312 36.898438 C 301.660156 38.726562 304.078125 40.613281 306.449219 42.558594 C 308.820312 44.507812 311.144531 46.511719 313.417969 48.570312 C 315.691406 50.632812 317.914062 52.746094 320.082031 54.917969 C 322.253906 57.085938 324.367188 59.308594 326.429688 61.582031 C 328.488281 63.855469 330.492188 66.179688 332.4375 68.550781 C 334.386719 70.921875 336.273438 73.339844 338.101562 75.804688 C 339.929688 78.269531 341.695312 80.777344 343.402344 83.332031 C 345.105469 85.882812 346.746094 88.472656 348.324219 91.105469 C 349.902344 93.738281 351.414062 96.40625 352.859375 99.113281 C 354.308594 101.820312 355.6875 104.558594 356.996094 107.332031 C 358.308594 110.105469 359.554688 112.910156 360.726562 115.746094 C 361.902344 118.582031 363.003906 121.445312 364.039062 124.332031 C 365.074219 127.222656 366.035156 130.136719 366.925781 133.070312 C 367.816406 136.007812 368.636719 138.964844 369.378906 141.941406 C 370.125 144.917969 370.796875 147.910156 371.398438 150.921875 C 371.996094 153.929688 372.519531 156.953125 372.96875 159.988281 C 373.421875 163.023438 373.796875 166.066406 374.097656 169.121094 C 374.398438 172.175781 374.625 175.234375 374.773438 178.300781 C 374.925781 181.363281 375 184.429688 375 187.5 Z M 375 187.5 " clip-rule="nonzero"/></clipPath><linearGradient x1="0.000000000000000057" gradientTransform="matrix(374.999991, 0, 0, 374.999991, 0.0000045, 0)" y1="0.000000000000000056" x2="1.004902" gradientUnits="userSpaceOnUse" y2="0.995049" id="2837c98ee2"><stop stop-opacity="1" stop-color="rgb(43.899536%, 72.499084%, 100%)" offset="0"/><stop stop-opacity="1" stop-color="rgb(43.852234%, 72.424316%, 99.882507%)" offset="0.0078125"/><stop stop-opacity="1" stop-color="rgb(43.759155%, 72.276306%, 99.649048%)" offset="0.015625"/><stop stop-opacity="1" stop-color="rgb(43.664551%, 72.128296%, 99.415588%)" offset="0.0234375"/><stop stop-opacity="1" stop-color="rgb(43.571472%, 71.980286%, 99.182129%)" offset="0.03125"/><stop stop-opacity="1" stop-color="rgb(43.478394%, 71.832275%, 98.950195%)" offset="0.0390625"/><stop stop-opacity="1" stop-color="rgb(43.385315%, 71.682739%, 98.716736%)" offset="0.046875"/><stop stop-opacity="1" stop-color="rgb(43.29071%, 71.534729%, 98.483276%)" offset="0.0546875"/><stop stop-opacity="1" stop-color="rgb(43.197632%, 71.386719%, 98.249817%)" offset="0.0625"/><stop stop-opacity="1" stop-color="rgb(43.104553%, 71.238708%, 98.016357%)" offset="0.0703125"/><stop stop-opacity="1" stop-color="rgb(43.011475%, 71.090698%, 97.784424%)" offset="0.078125"/><stop stop-opacity="1" stop-color="rgb(42.918396%, 70.942688%, 97.550964%)" offset="0.0859375"/><stop stop-opacity="1" stop-color="rgb(42.823792%, 70.794678%, 97.317505%)" offset="0.09375"/><stop stop-opacity="1" stop-color="rgb(42.730713%, 70.645142%, 97.084045%)" offset="0.101563"/><stop stop-opacity="1" stop-color="rgb(42.637634%, 70.497131%, 96.850586%)" offset="0.109375"/><stop stop-opacity="1" stop-color="rgb(42.544556%, 70.349121%, 96.618652%)" offset="0.117188"/><stop stop-opacity="1" stop-color="rgb(42.449951%, 70.201111%, 96.385193%)" offset="0.125"/><stop stop-opacity="1" stop-color="rgb(42.356873%, 70.053101%, 96.151733%)" offset="0.132812"/><stop stop-opacity="1" stop-color="rgb(42.263794%, 69.90509%, 95.918274%)" offset="0.140625"/><stop stop-opacity="1" stop-color="rgb(42.170715%, 69.75708%, 95.684814%)" offset="0.148438"/><stop stop-opacity="1" stop-color="rgb(42.077637%, 69.607544%, 95.452881%)" offset="0.15625"/><stop stop-opacity="1" stop-color="rgb(41.983032%, 69.459534%, 95.219421%)" offset="0.164062"/><stop stop-opacity="1" stop-color="rgb(41.889954%, 69.311523%, 94.985962%)" offset="0.171875"/><stop stop-opacity="1" stop-color="rgb(41.796875%, 69.163513%, 94.752502%)" offset="0.179688"/><stop stop-opacity="1" stop-color="rgb(41.703796%, 69.015503%, 94.519043%)" offset="0.1875"/><stop stop-opacity="1" stop-color="rgb(41.609192%, 68.867493%, 94.287109%)" offset="0.195313"/><stop stop-opacity="1" stop-color="rgb(41.516113%, 68.717957%, 94.05365%)" offset="0.203125"/><stop stop-opacity="1" stop-color="rgb(41.423035%, 68.569946%, 93.82019%)" offset="0.210938"/><stop stop-opacity="1" stop-color="rgb(41.329956%, 68.421936%, 93.586731%)" offset="0.21875"/><stop stop-opacity="1" stop-color="rgb(41.236877%, 68.273926%, 93.353271%)" offset="0.226563"/><stop stop-opacity="1" stop-color="rgb(41.142273%, 68.125916%, 93.121338%)" offset="0.234375"/><stop stop-opacity="1" stop-color="rgb(41.049194%, 67.977905%, 92.887878%)" offset="0.242188"/><stop stop-opacity="1" stop-color="rgb(40.956116%, 67.829895%, 92.654419%)" offset="0.25"/><stop stop-opacity="1" stop-color="rgb(40.863037%, 67.680359%, 92.420959%)" offset="0.257812"/><stop stop-opacity="1" stop-color="rgb(40.769958%, 67.532349%, 92.1875%)" offset="0.265625"/><stop stop-opacity="1" stop-color="rgb(40.675354%, 67.384338%, 91.955566%)" offset="0.273438"/><stop stop-opacity="1" stop-color="rgb(40.582275%, 67.236328%, 91.722107%)" offset="0.28125"/><stop stop-opacity="1" stop-color="rgb(40.489197%, 67.088318%, 91.488647%)" offset="0.289062"/><stop stop-opacity="1" stop-color="rgb(40.396118%, 66.940308%, 91.255188%)" offset="0.296875"/><stop stop-opacity="1" stop-color="rgb(40.301514%, 66.792297%, 91.021729%)" offset="0.304688"/><stop stop-opacity="1" stop-color="rgb(40.208435%, 66.642761%, 90.789795%)" offset="0.3125"/><stop stop-opacity="1" stop-color="rgb(40.115356%, 66.494751%, 90.556335%)" offset="0.320313"/><stop stop-opacity="1" stop-color="rgb(40.022278%, 66.346741%, 90.322876%)" offset="0.328125"/><stop stop-opacity="1" stop-color="rgb(39.929199%, 66.19873%, 90.089417%)" offset="0.335938"/><stop stop-opacity="1" stop-color="rgb(39.834595%, 66.05072%, 89.855957%)" offset="0.34375"/><stop stop-opacity="1" stop-color="rgb(39.741516%, 65.90271%, 89.624023%)" offset="0.351563"/><stop stop-opacity="1" stop-color="rgb(39.648438%, 65.7547%, 89.390564%)" offset="0.359375"/><stop stop-opacity="1" stop-color="rgb(39.555359%, 65.605164%, 89.157104%)" offset="0.367188"/><stop stop-opacity="1" stop-color="rgb(39.460754%, 65.457153%, 88.923645%)" offset="0.375"/><stop stop-opacity="1" stop-color="rgb(39.367676%, 65.309143%, 88.690186%)" offset="0.382813"/><stop stop-opacity="1" stop-color="rgb(39.274597%, 65.161133%, 88.458252%)" offset="0.390625"/><stop stop-opacity="1" stop-color="rgb(39.181519%, 65.013123%, 88.224792%)" offset="0.398438"/><stop stop-opacity="1" stop-color="rgb(39.08844%, 64.865112%, 87.991333%)" offset="0.40625"/><stop stop-opacity="1" stop-color="rgb(38.993835%, 64.717102%, 87.757874%)" offset="0.414062"/><stop stop-opacity="1" stop-color="rgb(38.900757%, 64.567566%, 87.524414%)" offset="0.421875"/><stop stop-opacity="1" stop-color="rgb(38.807678%, 64.419556%, 87.29248%)" offset="0.429688"/><stop stop-opacity="1" stop-color="rgb(38.7146%, 64.271545%, 87.059021%)" offset="0.4375"/><stop stop-opacity="1" stop-color="rgb(38.619995%, 64.123535%, 86.825562%)" offset="0.445312"/><stop stop-opacity="1" stop-color="rgb(38.526917%, 63.975525%, 86.592102%)" offset="0.453125"/><stop stop-opacity="1" stop-color="rgb(38.433838%, 63.827515%, 86.358643%)" offset="0.460938"/><stop stop-opacity="1" stop-color="rgb(38.340759%, 63.679504%, 86.126709%)" offset="0.46875"/><stop stop-opacity="1" stop-color="rgb(38.247681%, 63.529968%, 85.89325%)" offset="0.476563"/><stop stop-opacity="1" stop-color="rgb(38.153076%, 63.381958%, 85.65979%)" offset="0.484375"/><stop stop-opacity="1" stop-color="rgb(38.059998%, 63.233948%, 85.426331%)" offset="0.492188"/><stop stop-opacity="1" stop-color="rgb(37.966919%, 63.085938%, 85.192871%)" offset="0.497537"/><stop stop-opacity="1" stop-color="rgb(37.921143%, 63.012695%, 85.076904%)" offset="0.5"/><stop stop-opacity="1" stop-color="rgb(37.87384%, 62.937927%, 84.960938%)" offset="0.502463"/><stop stop-opacity="1" stop-color="rgb(37.826538%, 62.864685%, 84.844971%)" offset="0.507813"/><stop stop-opacity="1" stop-color="rgb(37.779236%, 62.789917%, 84.727478%)" offset="0.515625"/><stop stop-opacity="1" stop-color="rgb(37.686157%, 62.641907%, 84.494019%)" offset="0.523438"/><stop stop-opacity="1" stop-color="rgb(37.593079%, 62.492371%, 84.260559%)" offset="0.53125"/><stop stop-opacity="1" stop-color="rgb(37.5%, 62.34436%, 84.0271%)" offset="0.539063"/><stop stop-opacity="1" stop-color="rgb(37.406921%, 62.19635%, 83.795166%)" offset="0.546875"/><stop stop-opacity="1" stop-color="rgb(37.312317%, 62.04834%, 83.561707%)" offset="0.554688"/><stop stop-opacity="1" stop-color="rgb(37.219238%, 61.90033%, 83.328247%)" offset="0.5625"/><stop stop-opacity="1" stop-color="rgb(37.12616%, 61.752319%, 83.094788%)" offset="0.570313"/><stop stop-opacity="1" stop-color="rgb(37.033081%, 61.604309%, 82.861328%)" offset="0.578125"/><stop stop-opacity="1" stop-color="rgb(36.938477%, 61.454773%, 82.629395%)" offset="0.585938"/><stop stop-opacity="1" stop-color="rgb(36.845398%, 61.306763%, 82.395935%)" offset="0.59375"/><stop stop-opacity="1" stop-color="rgb(36.752319%, 61.158752%, 82.162476%)" offset="0.601562"/><stop stop-opacity="1" stop-color="rgb(36.659241%, 61.010742%, 81.929016%)" offset="0.609375"/><stop stop-opacity="1" stop-color="rgb(36.566162%, 60.862732%, 81.695557%)" offset="0.617188"/><stop stop-opacity="1" stop-color="rgb(36.471558%, 60.714722%, 81.463623%)" offset="0.625"/><stop stop-opacity="1" stop-color="rgb(36.378479%, 60.566711%, 81.230164%)" offset="0.632812"/><stop stop-opacity="1" stop-color="rgb(36.2854%, 60.417175%, 80.996704%)" offset="0.640625"/><stop stop-opacity="1" stop-color="rgb(36.192322%, 60.269165%, 80.763245%)" offset="0.648437"/><stop stop-opacity="1" stop-color="rgb(36.097717%, 60.121155%, 80.529785%)" offset="0.65625"/><stop stop-opacity="1" stop-color="rgb(36.004639%, 59.973145%, 80.297852%)" offset="0.664062"/><stop stop-opacity="1" stop-color="rgb(35.91156%, 59.825134%, 80.064392%)" offset="0.671875"/><stop stop-opacity="1" stop-color="rgb(35.818481%, 59.677124%, 79.830933%)" offset="0.679687"/><stop stop-opacity="1" stop-color="rgb(35.725403%, 59.529114%, 79.597473%)" offset="0.6875"/><stop stop-opacity="1" stop-color="rgb(35.630798%, 59.379578%, 79.364014%)" offset="0.695312"/><stop stop-opacity="1" stop-color="rgb(35.53772%, 59.231567%, 79.13208%)" offset="0.703125"/><stop stop-opacity="1" stop-color="rgb(35.444641%, 59.083557%, 78.898621%)" offset="0.710937"/><stop stop-opacity="1" stop-color="rgb(35.351562%, 58.935547%, 78.665161%)" offset="0.71875"/><stop stop-opacity="1" stop-color="rgb(35.256958%, 58.787537%, 78.431702%)" offset="0.726562"/><stop stop-opacity="1" stop-color="rgb(35.163879%, 58.639526%, 78.198242%)" offset="0.734375"/><stop stop-opacity="1" stop-color="rgb(35.070801%, 58.491516%, 77.966309%)" offset="0.742187"/><stop stop-opacity="1" stop-color="rgb(34.977722%, 58.34198%, 77.732849%)" offset="0.75"/><stop stop-opacity="1" stop-color="rgb(34.884644%, 58.19397%, 77.49939%)" offset="0.757812"/><stop stop-opacity="1" stop-color="rgb(34.790039%, 58.045959%, 77.26593%)" offset="0.765625"/><stop stop-opacity="1" stop-color="rgb(34.69696%, 57.897949%, 77.032471%)" offset="0.773437"/><stop stop-opacity="1" stop-color="rgb(34.603882%, 57.749939%, 76.800537%)" offset="0.78125"/><stop stop-opacity="1" stop-color="rgb(34.510803%, 57.601929%, 76.567078%)" offset="0.789062"/><stop stop-opacity="1" stop-color="rgb(34.416199%, 57.453918%, 76.333618%)" offset="0.796875"/><stop stop-opacity="1" stop-color="rgb(34.32312%, 57.304382%, 76.100159%)" offset="0.804687"/><stop stop-opacity="1" stop-color="rgb(34.230042%, 57.156372%, 75.866699%)" offset="0.8125"/><stop stop-opacity="1" stop-color="rgb(34.136963%, 57.008362%, 75.634766%)" offset="0.820312"/><stop stop-opacity="1" stop-color="rgb(34.043884%, 56.860352%, 75.401306%)" offset="0.828125"/><stop stop-opacity="1" stop-color="rgb(33.94928%, 56.712341%, 75.167847%)" offset="0.835938"/><stop stop-opacity="1" stop-color="rgb(33.856201%, 56.564331%, 74.934387%)" offset="0.84375"/><stop stop-opacity="1" stop-color="rgb(33.763123%, 56.416321%, 74.700928%)" offset="0.851563"/><stop stop-opacity="1" stop-color="rgb(33.670044%, 56.266785%, 74.468994%)" offset="0.859375"/><stop stop-opacity="1" stop-color="rgb(33.575439%, 56.118774%, 74.235535%)" offset="0.867188"/><stop stop-opacity="1" stop-color="rgb(33.482361%, 55.970764%, 74.002075%)" offset="0.875"/><stop stop-opacity="1" stop-color="rgb(33.389282%, 55.822754%, 73.768616%)" offset="0.882813"/><stop stop-opacity="1" stop-color="rgb(33.296204%, 55.674744%, 73.535156%)" offset="0.890625"/><stop stop-opacity="1" stop-color="rgb(33.203125%, 55.526733%, 73.303223%)" offset="0.898438"/><stop stop-opacity="1" stop-color="rgb(33.108521%, 55.378723%, 73.069763%)" offset="0.90625"/><stop stop-opacity="1" stop-color="rgb(33.015442%, 55.229187%, 72.836304%)" offset="0.914063"/><stop stop-opacity="1" stop-color="rgb(32.922363%, 55.081177%, 72.602844%)" offset="0.921875"/><stop stop-opacity="1" stop-color="rgb(32.829285%, 54.933167%, 72.369385%)" offset="0.929688"/><stop stop-opacity="1" stop-color="rgb(32.73468%, 54.785156%, 72.137451%)" offset="0.9375"/><stop stop-opacity="1" stop-color="rgb(32.641602%, 54.637146%, 71.903992%)" offset="0.945313"/><stop stop-opacity="1" stop-color="rgb(32.548523%, 54.489136%, 71.670532%)" offset="0.953125"/><stop stop-opacity="1" stop-color="rgb(32.455444%, 54.341125%, 71.437073%)" offset="0.960938"/><stop stop-opacity="1" stop-color="rgb(32.362366%, 54.191589%, 71.203613%)" offset="0.96875"/><stop stop-opacity="1" stop-color="rgb(32.267761%, 54.043579%, 70.97168%)" offset="0.976562"/><stop stop-opacity="1" stop-color="rgb(32.174683%, 53.895569%, 70.73822%)" offset="0.984375"/><stop stop-opacity="1" stop-color="rgb(32.081604%, 53.747559%, 70.504761%)" offset="0.992188"/><stop stop-opacity="1" stop-color="rgb(31.988525%, 53.599548%, 70.271301%)" offset="1"/></linearGradient></defs><g clip-path="url(#f607959ed9)"><rect x="-37.5" fill="url(#2837c98ee2)" width="450" y="-37.499999" height="449.999989"/></g><g fill="#ffffff" fill-opacity="1"><g transform="translate(111.41963, 245.494464)"><g><path d="M 180.671875 -51.84375 C 178.449219 -52.734375 176 -51.84375 175.109375 -49.617188 C 149.746094 4.226562 125.269531 43.832031 102.128906 68.085938 C 82.546875 88.554688 64.972656 97.011719 50.953125 92.785156 C 38.269531 88.777344 28.480469 73.871094 23.585938 50.730469 C 18.023438 25.808594 18.246094 -6.230469 24.03125 -41.832031 C 32.261719 -92.5625 56.070312 -164.429688 83.882812 -197.804688 C 92.117188 -207.59375 99.238281 -212.269531 103.464844 -210.042969 C 113.921875 -204.925781 118.148438 -162.425781 95.230469 -59.410156 C 94.5625 -57.183594 96.121094 -54.957031 98.347656 -54.289062 C 100.792969 -53.847656 103.019531 -55.402344 103.464844 -57.628906 C 118.371094 -124.15625 131.054688 -206.039062 107.246094 -217.832031 C 101.460938 -220.722656 91.671875 -220.5 77.429688 -203.367188 C 59.628906 -182.007812 46.058594 -150.191406 37.824219 -127.050781 C 27.8125 -99.679688 19.804688 -68.976562 15.574219 -43.164062 C 3.113281 33.152344 16.464844 91.003906 48.503906 101.015625 C 51.621094 101.90625 54.957031 102.351562 58.296875 102.351562 C 93.453125 102.351562 138.175781 49.394531 182.675781 -46.058594 C 183.789062 -48.28125 182.898438 -50.730469 180.671875 -51.84375 Z M 180.671875 -51.84375 "/></g></g></g><g fill="#ffffff" fill-opacity="1"><g transform="translate(105.716263, 239.7911)"><g><path d="M 180.671875 -51.84375 C 178.449219 -52.734375 176 -51.84375 175.109375 -49.617188 C 149.746094 4.226562 125.269531 43.832031 102.128906 68.085938 C 82.546875 88.554688 64.972656 97.011719 50.953125 92.785156 C 38.269531 88.777344 28.480469 73.871094 23.585938 50.730469 C 18.023438 25.808594 18.246094 -6.230469 24.03125 -41.832031 C 32.261719 -92.5625 56.070312 -164.429688 83.882812 -197.804688 C 92.117188 -207.59375 99.238281 -212.269531 103.464844 -210.042969 C 113.921875 -204.925781 118.148438 -162.425781 95.230469 -59.410156 C 94.5625 -57.183594 96.121094 -54.957031 98.347656 -54.289062 C 100.792969 -53.847656 103.019531 -55.402344 103.464844 -57.628906 C 118.371094 -124.15625 131.054688 -206.039062 107.246094 -217.832031 C 101.460938 -220.722656 91.671875 -220.5 77.429688 -203.367188 C 59.628906 -182.007812 46.058594 -150.191406 37.824219 -127.050781 C 27.8125 -99.679688 19.804688 -68.976562 15.574219 -43.164062 C 3.113281 33.152344 16.464844 91.003906 48.503906 101.015625 C 51.621094 101.90625 54.957031 102.351562 58.296875 102.351562 C 93.453125 102.351562 138.175781 49.394531 182.675781 -46.058594 C 183.789062 -48.28125 182.898438 -50.730469 180.671875 -51.84375 Z M 180.671875 -51.84375 "/></g></g></g></svg>